<mxfile host="65bd71144e">
    <diagram id="9ARKL3qb3bNiGvSYfrEi" name="Standard">
        <mxGraphModel dx="997" dy="782" grid="0" gridSize="10" guides="1" tooltips="1" connect="1" arrows="1" fold="1" page="1" pageScale="1" pageWidth="827" pageHeight="1169" math="0" shadow="0">
            <root>
                <mxCell id="0"/>
                <mxCell id="1" parent="0"/>
                <mxCell id="9" value="" style="edgeStyle=none;html=1;endArrow=open;endFill=0;" parent="1" source="2" target="7" edge="1">
                    <mxGeometry relative="1" as="geometry"/>
                </mxCell>
                <mxCell id="2" value="Client" style="html=1;fontStyle=1" parent="1" vertex="1">
                    <mxGeometry x="198" y="304" width="110" height="50" as="geometry"/>
                </mxCell>
                <mxCell id="3" value="Singleton" style="swimlane;fontStyle=1;align=center;verticalAlign=top;childLayout=stackLayout;horizontal=1;startSize=26;horizontalStack=0;resizeParent=1;resizeParentMax=0;resizeLast=0;collapsible=1;marginBottom=0;" parent="1" vertex="1">
                    <mxGeometry x="367" y="256" width="160" height="112" as="geometry">
                        <mxRectangle x="367" y="256" width="82" height="26" as="alternateBounds"/>
                    </mxGeometry>
                </mxCell>
                <mxCell id="12" style="edgeStyle=orthogonalEdgeStyle;rounded=0;html=1;exitX=1;exitY=0.5;exitDx=0;exitDy=0;entryX=0.998;entryY=0.118;entryDx=0;entryDy=0;entryPerimeter=0;endArrow=open;endFill=0;" parent="3" source="4" target="3" edge="1">
                    <mxGeometry relative="1" as="geometry">
                        <Array as="points">
                            <mxPoint x="186" y="39"/>
                            <mxPoint x="186" y="13"/>
                        </Array>
                    </mxGeometry>
                </mxCell>
                <mxCell id="4" value="- instance: Singleton" style="text;strokeColor=none;fillColor=none;align=left;verticalAlign=top;spacingLeft=4;spacingRight=4;overflow=hidden;rotatable=0;points=[[0,0.5],[1,0.5]];portConstraint=eastwest;fontStyle=4" parent="3" vertex="1">
                    <mxGeometry y="26" width="160" height="26" as="geometry"/>
                </mxCell>
                <mxCell id="5" value="" style="line;strokeWidth=1;fillColor=none;align=left;verticalAlign=middle;spacingTop=-1;spacingLeft=3;spacingRight=3;rotatable=0;labelPosition=right;points=[];portConstraint=eastwest;" parent="3" vertex="1">
                    <mxGeometry y="52" width="160" height="8" as="geometry"/>
                </mxCell>
                <mxCell id="7" value="- Singleton()" style="text;strokeColor=none;fillColor=none;align=left;verticalAlign=top;spacingLeft=4;spacingRight=4;overflow=hidden;rotatable=0;points=[[0,0.5],[1,0.5]];portConstraint=eastwest;" parent="3" vertex="1">
                    <mxGeometry y="60" width="160" height="26" as="geometry"/>
                </mxCell>
                <mxCell id="6" value="+ getInstance(): Singleton" style="text;strokeColor=none;fillColor=none;align=left;verticalAlign=top;spacingLeft=4;spacingRight=4;overflow=hidden;rotatable=0;points=[[0,0.5],[1,0.5]];portConstraint=eastwest;fontStyle=4" parent="3" vertex="1">
                    <mxGeometry y="86" width="160" height="26" as="geometry"/>
                </mxCell>
                <mxCell id="13" value="if (instance == null) {&lt;br&gt;&amp;nbsp; &amp;nbsp; // Note: if you're creating an app with multithreading support, you should place a thread lock here&lt;br&gt;&amp;nbsp; &amp;nbsp; instance = new Singleton()&lt;br&gt;}&lt;br&gt;return instance" style="whiteSpace=wrap;html=1;rounded=1;arcSize=50;align=left;verticalAlign=middle;strokeWidth=1;autosize=1;spacing=15;treeFolding=1;treeMoving=1;newEdgeStyle={&quot;edgeStyle&quot;:&quot;entityRelationEdgeStyle&quot;,&quot;startArrow&quot;:&quot;none&quot;,&quot;endArrow&quot;:&quot;none&quot;,&quot;segment&quot;:10,&quot;curved&quot;:1};" parent="1" vertex="1">
                    <mxGeometry x="151" y="467" width="583" height="104" as="geometry"/>
                </mxCell>
                <mxCell id="14" value="" style="edgeStyle=entityRelationEdgeStyle;startArrow=none;endArrow=none;segment=10;curved=1;rounded=0;exitX=0.997;exitY=0.646;exitDx=0;exitDy=0;exitPerimeter=0;" parent="1" source="6" target="13" edge="1">
                    <mxGeometry relative="1" as="geometry">
                        <mxPoint x="348" y="506" as="sourcePoint"/>
                    </mxGeometry>
                </mxCell>
            </root>
        </mxGraphModel>
    </diagram>
    <diagram id="eknuguEq-BgWqJF_wUVM" name="Practice">
        <mxGraphModel dx="997" dy="782" grid="0" gridSize="10" guides="1" tooltips="1" connect="1" arrows="1" fold="1" page="1" pageScale="1" pageWidth="827" pageHeight="1169" math="0" shadow="0">
            <root>
                <mxCell id="-bmjXFyWlV_FRjvZWau7-0"/>
                <mxCell id="-bmjXFyWlV_FRjvZWau7-1" parent="-bmjXFyWlV_FRjvZWau7-0"/>
                <mxCell id="-bmjXFyWlV_FRjvZWau7-2" value="Headquarters" style="swimlane;fontStyle=1;align=center;verticalAlign=top;childLayout=stackLayout;horizontal=1;startSize=26;horizontalStack=0;resizeParent=1;resizeParentMax=0;resizeLast=0;collapsible=1;marginBottom=0;" parent="-bmjXFyWlV_FRjvZWau7-1" vertex="1">
                    <mxGeometry x="297" y="261" width="350" height="138" as="geometry">
                        <mxRectangle x="297" y="261" width="104" height="26" as="alternateBounds"/>
                    </mxGeometry>
                </mxCell>
                <mxCell id="-bmjXFyWlV_FRjvZWau7-3" value="- instance: Headquater" style="text;strokeColor=none;fillColor=none;align=left;verticalAlign=top;spacingLeft=4;spacingRight=4;overflow=hidden;rotatable=0;points=[[0,0.5],[1,0.5]];portConstraint=eastwest;fontStyle=4" parent="-bmjXFyWlV_FRjvZWau7-2" vertex="1">
                    <mxGeometry y="26" width="350" height="26" as="geometry"/>
                </mxCell>
                <mxCell id="-bmjXFyWlV_FRjvZWau7-4" value="" style="line;strokeWidth=1;fillColor=none;align=left;verticalAlign=middle;spacingTop=-1;spacingLeft=3;spacingRight=3;rotatable=0;labelPosition=right;points=[];portConstraint=eastwest;" parent="-bmjXFyWlV_FRjvZWau7-2" vertex="1">
                    <mxGeometry y="52" width="350" height="8" as="geometry"/>
                </mxCell>
                <mxCell id="-bmjXFyWlV_FRjvZWau7-13" style="edgeStyle=orthogonalEdgeStyle;rounded=0;html=1;exitX=1;exitY=0.5;exitDx=0;exitDy=0;entryX=1;entryY=0.072;entryDx=0;entryDy=0;entryPerimeter=0;endArrow=open;endFill=0;" parent="-bmjXFyWlV_FRjvZWau7-2" source="-bmjXFyWlV_FRjvZWau7-5" target="-bmjXFyWlV_FRjvZWau7-2" edge="1">
                    <mxGeometry relative="1" as="geometry">
                        <Array as="points">
                            <mxPoint x="404" y="73"/>
                            <mxPoint x="404" y="10"/>
                        </Array>
                    </mxGeometry>
                </mxCell>
                <mxCell id="-bmjXFyWlV_FRjvZWau7-5" value="- Headquarter()" style="text;strokeColor=none;fillColor=none;align=left;verticalAlign=top;spacingLeft=4;spacingRight=4;overflow=hidden;rotatable=0;points=[[0,0.5],[1,0.5]];portConstraint=eastwest;" parent="-bmjXFyWlV_FRjvZWau7-2" vertex="1">
                    <mxGeometry y="60" width="350" height="26" as="geometry"/>
                </mxCell>
                <mxCell id="-bmjXFyWlV_FRjvZWau7-6" value="+ getInstance(): Headquarter" style="text;strokeColor=none;fillColor=none;align=left;verticalAlign=top;spacingLeft=4;spacingRight=4;overflow=hidden;rotatable=0;points=[[0,0.5],[1,0.5]];portConstraint=eastwest;fontStyle=4" parent="-bmjXFyWlV_FRjvZWau7-2" vertex="1">
                    <mxGeometry y="86" width="350" height="26" as="geometry"/>
                </mxCell>
                <mxCell id="-bmjXFyWlV_FRjvZWau7-8" value="+ callInAirStrike(coordinateX: number, coordinateY: number)" style="text;strokeColor=none;fillColor=none;align=left;verticalAlign=top;spacingLeft=4;spacingRight=4;overflow=hidden;rotatable=0;points=[[0,0.5],[1,0.5]];portConstraint=eastwest;" parent="-bmjXFyWlV_FRjvZWau7-2" vertex="1">
                    <mxGeometry y="112" width="350" height="26" as="geometry"/>
                </mxCell>
                <mxCell id="-bmjXFyWlV_FRjvZWau7-11" style="edgeStyle=orthogonalEdgeStyle;rounded=0;html=1;exitX=1;exitY=0.5;exitDx=0;exitDy=0;entryX=0;entryY=0.5;entryDx=0;entryDy=0;endArrow=open;endFill=0;" parent="-bmjXFyWlV_FRjvZWau7-1" source="-bmjXFyWlV_FRjvZWau7-9" target="-bmjXFyWlV_FRjvZWau7-5" edge="1">
                    <mxGeometry relative="1" as="geometry"/>
                </mxCell>
                <mxCell id="-bmjXFyWlV_FRjvZWau7-9" value="Client" style="html=1;fontStyle=1" parent="-bmjXFyWlV_FRjvZWau7-1" vertex="1">
                    <mxGeometry x="127" y="309" width="110" height="50" as="geometry"/>
                </mxCell>
            </root>
        </mxGraphModel>
    </diagram>
</mxfile>